<svg width="38" height="38" viewBox="0 0 38 38" fill="none" xmlns="http://www.w3.org/2000/svg">
<path d="M3.1665 17.6543V10.3393C3.1665 7.10933 5.77901 4.49683 9.00901 4.49683H17.9073C21.1373 4.49683 23.7498 6.50766 23.7498 9.73766" fill="#2B97C1"/>
<path d="M3.1665 17.6543V10.3393C3.1665 7.10933 5.77901 4.49683 9.00901 4.49683H17.9073C21.1373 4.49683 23.7498 6.50766 23.7498 9.73766" stroke="#2B97C1" stroke-width="1.5" stroke-linecap="round" stroke-linejoin="round"/>
<path d="M27.6765 19.3167C26.8848 20.0767 26.5048 21.2483 26.8215 22.4517C27.2173 23.9242 28.674 24.8584 30.194 24.8584H31.6665V27.1542C31.6665 30.6534 28.8323 33.4875 25.3332 33.4875H9.49984C6.00067 33.4875 3.1665 30.6534 3.1665 27.1542V16.0709C3.1665 12.5717 6.00067 9.73755 9.49984 9.73755H25.3332C28.8165 9.73755 31.6665 12.5875 31.6665 16.0709V18.3666H29.9565C29.0698 18.3666 28.2623 18.715 27.6765 19.3167Z" fill="#2B97C1" stroke="white" stroke-width="1.5" stroke-linecap="round" stroke-linejoin="round"/>
<path d="M34.8335 19.9817V23.2434C34.8335 24.1301 34.1051 24.8584 33.2026 24.8584H30.1468C28.4368 24.8584 26.8693 23.6076 26.7268 21.8976C26.6318 20.9001 27.0118 19.9659 27.6768 19.3168C28.2626 18.7151 29.0701 18.3667 29.9568 18.3667H33.2026C34.1051 18.3667 34.8335 19.0951 34.8335 19.9817Z" fill="#2B97C1" stroke="white" stroke-width="1.5" stroke-linecap="round" stroke-linejoin="round"/>
<path d="M20.583 17.6543H11.083" stroke="white" stroke-width="1.5" stroke-linecap="round" stroke-linejoin="round"/>
</svg>
